<svg width="108" height="32" viewBox="0 0 108 32" fill="none" xmlns="http://www.w3.org/2000/svg" role="img" aria-label="Spiko">
  <path d="M31.7715 12.3353C31.6654 6.7466 23.9898 0.0437012 23.9898 0.0437012C23.9898 0.0437012 27.0812 5.25256 27.4791 7.24221C24.1189 3.21871 17.8881 1.01642 17.8881 1.01642C17.8881 1.01642 24.6691 7.63227 25.2278 8.87028C19.8738 4.99659 9.7527 3.75771 9.7527 3.75771C9.7527 3.75771 21.2471 9.09192 22.1755 10.3299C13.8106 6.79308 5.1102 8.57707 5.1102 8.57707C5.1102 8.57707 16.4245 10.6673 18.4141 12.1264C10.5044 11.1159 2.01526 14.5902 2.01526 14.5902C2.01526 14.5902 13.7761 14.0597 15.589 14.5902C8.75798 14.3789 0.909897 20.3381 0.909897 20.3381C0.909897 20.3381 8.77999 18.5695 12.6267 17.9948C5.1102 21.0897 0.0698242 27.2797 0.0698242 27.2797C0.0698242 27.2797 6.79041 23.6542 9.2222 23.0352C8.73583 24.4058 7.63041 26.8375 9.7527 27.2797C11.4505 27.6335 14.6752 26.5134 15.589 26.2185C15.8543 26.8818 16.1406 27.2797 17.7112 27.2797C19.0819 27.2797 20.3495 26.6902 20.8506 26.2185C21.3369 26.8818 22.0303 27.2797 23.017 27.2797C24.2107 27.2797 24.8003 27.0145 25.2278 26.6607C25.6257 27.0145 26.0236 27.3611 27.2174 27.2797C29.2071 27.1441 29.2955 24.6711 29.4723 22.6815C29.6492 20.6918 31.6388 18.4368 33.9379 17.2873C36.237 16.1378 36.2371 14.0597 34.8223 14.5902C32.9653 15.0324 35.4413 16.005 32.9653 17.0662C28.7648 19.3654 27.0847 21.9298 26.1562 24.2289C25.2278 26.5281 22.4422 25.688 22.4422 25.2016C22.4422 24.7153 23.9455 22.593 22.4422 22.2836C20.8166 21.9488 18.9051 23.3888 16.0312 24.5385C14.351 25.2105 10.3054 26.307 10.5044 25.5112C11.9745 19.6307 18.7725 17.9948 22.7518 16.624C20.0547 16.1378 15.1026 16.624 15.1026 16.624C15.1026 16.624 20.6982 15.0457 23.1299 15.0457C20.3886 13.9846 16.4492 13.1931 16.4492 13.1931C16.4492 13.1931 22.449 13.631 24.365 13.8668C22.9059 12.8498 18.4141 10.4983 18.4141 10.4983C18.4141 10.4983 24.828 12.2469 25.7124 12.6891C25.4294 11.6986 21.558 8.08431 21.558 8.08431C21.558 8.08431 26.8636 11.1979 27.7037 12.1264C27.5268 10.8442 25.2278 6.79308 25.2278 6.79308C25.2278 6.79308 29.0147 10.5635 29.8106 11.8457C29.9875 10.3866 28.8001 6.45624 28.8001 6.45624C28.8001 6.45624 30.8429 10.6109 31.7715 12.3353Z" fill="white" />
  <path d="M47.1268 26.9849C43.5464 26.9849 40.8744 25.4618 40.3667 22.2823H44.4816C44.7754 23.7518 46.0045 24.2061 47.287 24.2061C49.0773 24.2061 50.0391 23.6182 50.0391 22.683C50.0391 21.8013 49.4513 21.3738 47.4741 20.9195L44.909 20.3585C42.1569 19.7707 40.6607 18.4881 40.6607 16.3238C40.6607 13.5716 43.4929 11.8349 46.9664 11.8349C50.2529 11.8349 53.005 13.1976 53.6464 16.0032H49.5315C49.2108 15.0947 48.1689 14.6137 46.9932 14.6137C45.6839 14.6137 44.5616 15.0947 44.5616 16.0032C44.5616 16.8315 45.39 17.1521 46.8863 17.4727L49.4513 18.0338C52.4974 18.7019 53.9402 20.0111 53.9402 22.3624C53.9402 25.3282 51.001 26.9849 47.1268 26.9849ZM55.4709 31.9012V12.1556H59.5323V15.4153C60.1736 13.5182 61.8034 11.8349 64.3419 11.8349C67.9223 11.8349 70.327 15.068 70.327 19.4233C70.327 23.7785 67.9223 26.9849 64.3419 26.9849C62.0974 26.9849 60.3072 25.6222 59.5323 23.7518V31.9012H55.4709ZM59.372 19.4233C59.372 22.3624 60.5477 24.2061 62.7654 24.2061C64.9831 24.2061 66.1588 22.3624 66.1588 19.4233C66.1588 16.4574 64.9831 14.6137 62.7654 14.6137C60.5477 14.6137 59.372 16.4574 59.372 19.4233ZM71.9629 26.6643V12.1556H76.0511V26.6643H71.9629ZM71.9095 10.205V6.35742H76.1312V10.205H71.9095ZM87.9741 26.6643L82.5233 19.3164V26.6643H78.4351V6.35742H82.5233V18.0072L87.7603 12.1556H92.5965L86.7984 18.595L92.8637 26.6643H87.9741ZM99.0795 26.9849C94.4303 26.9849 91.5179 23.8587 91.5179 19.4233C91.5179 14.9611 94.4303 11.8349 99.0795 11.8349C103.729 11.8349 106.641 14.9611 106.641 19.4233C106.641 23.8587 103.729 26.9849 99.0795 26.9849ZM95.6862 19.4233C95.6862 22.3624 96.8617 24.2061 99.0795 24.2061C101.297 24.2061 102.473 22.3624 102.473 19.4233C102.473 16.4574 101.297 14.6137 99.0795 14.6137C96.8617 14.6137 95.6862 16.4574 95.6862 19.4233Z" fill="white" />
</svg>
